<?xml version="1.0"?>
<svg width="220" height="40" viewBox="0 0 220 40">
  <defs>
    <linearGradient id="gradient">
      <stop stop-color="#85CE36" offset="0"/>
      <stop stop-color="#C5FE96" offset="0.5"/>
      <stop stop-color="#85CE36" offset="1"/>
    </linearGradient>
  </defs>
  <g transform="matrix(1,0,0,1,0,0)" fill="url(#gradient)">
    <g xmlns="http://www.w3.org/2000/svg">
        <path d="M7,2H17V7H19V13H16.5L13,17H11L7.5,13H5V7H7V2M10,22H2V20H10A1,1 0 0,0 11,19V18H13V19A3,3 0 0,1 10,22M7,9V11H8.5L12,15L15.5,11H17V9H15V4H9V9H7Z" />
        <path transform="matrix(1,0,0,1,15,15)" d="M7,2H17V7H19V13H16.5L13,17H11L7.5,13H5V7H7V2M10,22H2V20H10A1,1 0 0,0 11,19V18H13V19A3,3 0 0,1 10,22M7,9V11H8.5L12,15L15.5,11H17V9H15V4H9V9H7Z" />
    </g>
  </g>
  <g fill="url(#gradient)">
    <text id="eins" x="40" y="25" font-size="2em">Queued-Printing</text>
  </g>
</svg>
